<svg width="82" height="24" viewBox="0 0 82 24" fill="none" xmlns="http://www.w3.org/2000/svg">
<g clip-path="url(#clip0_156_785)">
<g filter="url(#filter0_d_156_785)">
<path d="M21 18V19C21 20.1 20.1 21 19 21H5C3.89 21 3 20.1 3 19V5C3 3.9 3.89 3 5 3H19C20.1 3 21 3.9 21 5V6H12C10.89 6 10 6.9 10 8V16C10 17.1 10.89 18 12 18H21ZM12 16H22V8H12V16ZM16 13.5C15.17 13.5 14.5 12.83 14.5 12C14.5 11.17 15.17 10.5 16 10.5C16.83 10.5 17.5 11.17 17.5 12C17.5 12.83 16.83 13.5 16 13.5Z" fill="#24FF00"/>
</g>
</g>
<path d="M38.612 14.4H34.148L33.224 16.5H31.988L35.792 8.1H36.98L40.796 16.5H39.536L38.612 14.4ZM38.192 13.44L36.38 9.324L34.568 13.44H38.192ZM47.8225 7.596V16.5H46.7185V15.492C46.4625 15.844 46.1385 16.112 45.7465 16.296C45.3545 16.48 44.9225 16.572 44.4505 16.572C43.8345 16.572 43.2825 16.436 42.7945 16.164C42.3065 15.892 41.9225 15.512 41.6425 15.024C41.3705 14.528 41.2345 13.96 41.2345 13.32C41.2345 12.68 41.3705 12.116 41.6425 11.628C41.9225 11.14 42.3065 10.76 42.7945 10.488C43.2825 10.216 43.8345 10.08 44.4505 10.08C44.9065 10.08 45.3265 10.168 45.7105 10.344C46.0945 10.512 46.4145 10.764 46.6705 11.1V7.596H47.8225ZM44.5465 15.564C44.9465 15.564 45.3105 15.472 45.6385 15.288C45.9665 15.096 46.2225 14.832 46.4065 14.496C46.5905 14.152 46.6825 13.76 46.6825 13.32C46.6825 12.88 46.5905 12.492 46.4065 12.156C46.2225 11.812 45.9665 11.548 45.6385 11.364C45.3105 11.18 44.9465 11.088 44.5465 11.088C44.1385 11.088 43.7705 11.18 43.4425 11.364C43.1225 11.548 42.8665 11.812 42.6745 12.156C42.4905 12.492 42.3985 12.88 42.3985 13.32C42.3985 13.76 42.4905 14.152 42.6745 14.496C42.8665 14.832 43.1225 15.096 43.4425 15.288C43.7705 15.472 44.1385 15.564 44.5465 15.564ZM56.0022 7.596V16.5H54.8982V15.492C54.6422 15.844 54.3182 16.112 53.9262 16.296C53.5342 16.48 53.1022 16.572 52.6302 16.572C52.0142 16.572 51.4622 16.436 50.9742 16.164C50.4862 15.892 50.1022 15.512 49.8222 15.024C49.5502 14.528 49.4142 13.96 49.4142 13.32C49.4142 12.68 49.5502 12.116 49.8222 11.628C50.1022 11.14 50.4862 10.76 50.9742 10.488C51.4622 10.216 52.0142 10.08 52.6302 10.08C53.0862 10.08 53.5062 10.168 53.8902 10.344C54.2742 10.512 54.5942 10.764 54.8502 11.1V7.596H56.0022ZM52.7262 15.564C53.1262 15.564 53.4902 15.472 53.8182 15.288C54.1462 15.096 54.4022 14.832 54.5862 14.496C54.7702 14.152 54.8622 13.76 54.8622 13.32C54.8622 12.88 54.7702 12.492 54.5862 12.156C54.4022 11.812 54.1462 11.548 53.8182 11.364C53.4902 11.18 53.1262 11.088 52.7262 11.088C52.3182 11.088 51.9502 11.18 51.6222 11.364C51.3022 11.548 51.0462 11.812 50.8542 12.156C50.6702 12.492 50.5782 12.88 50.5782 13.32C50.5782 13.76 50.6702 14.152 50.8542 14.496C51.0462 14.832 51.3022 15.096 51.6222 15.288C51.9502 15.472 52.3182 15.564 52.7262 15.564ZM59.2858 11.208C59.4858 10.84 59.7818 10.56 60.1738 10.368C60.5658 10.176 61.0418 10.08 61.6018 10.08V11.196C61.5378 11.188 61.4498 11.184 61.3378 11.184C60.7138 11.184 60.2218 11.372 59.8618 11.748C59.5098 12.116 59.3338 12.644 59.3338 13.332V16.5H58.1818V10.14H59.2858V11.208ZM68.7111 13.356C68.7111 13.444 68.7031 13.56 68.6871 13.704H63.5271C63.5991 14.264 63.8431 14.716 64.2591 15.06C64.6831 15.396 65.2071 15.564 65.8311 15.564C66.5911 15.564 67.2031 15.308 67.6671 14.796L68.3031 15.54C68.0151 15.876 67.6551 16.132 67.2231 16.308C66.7991 16.484 66.3231 16.572 65.7951 16.572C65.1231 16.572 64.5271 16.436 64.0071 16.164C63.4871 15.884 63.0831 15.496 62.7951 15C62.5151 14.504 62.3751 13.944 62.3751 13.32C62.3751 12.704 62.5111 12.148 62.7831 11.652C63.0631 11.156 63.4431 10.772 63.9231 10.5C64.4111 10.22 64.9591 10.08 65.5671 10.08C66.1751 10.08 66.7151 10.22 67.1871 10.5C67.6671 10.772 68.0391 11.156 68.3031 11.652C68.5751 12.148 68.7111 12.716 68.7111 13.356ZM65.5671 11.052C65.0151 11.052 64.5511 11.22 64.1751 11.556C63.8071 11.892 63.5911 12.332 63.5271 12.876H67.6071C67.5431 12.34 67.3231 11.904 66.9471 11.568C66.5791 11.224 66.1191 11.052 65.5671 11.052ZM72.1348 16.572C71.6148 16.572 71.1148 16.504 70.6348 16.368C70.1548 16.224 69.7788 16.044 69.5068 15.828L69.9868 14.916C70.2668 15.116 70.6068 15.276 71.0068 15.396C71.4068 15.516 71.8108 15.576 72.2188 15.576C73.2268 15.576 73.7308 15.288 73.7308 14.712C73.7308 14.52 73.6628 14.368 73.5268 14.256C73.3908 14.144 73.2188 14.064 73.0108 14.016C72.8108 13.96 72.5228 13.9 72.1468 13.836C71.6348 13.756 71.2148 13.664 70.8868 13.56C70.5668 13.456 70.2908 13.28 70.0588 13.032C69.8268 12.784 69.7108 12.436 69.7108 11.988C69.7108 11.412 69.9508 10.952 70.4308 10.608C70.9108 10.256 71.5548 10.08 72.3628 10.08C72.7868 10.08 73.2108 10.132 73.6348 10.236C74.0588 10.34 74.4068 10.48 74.6788 10.656L74.1868 11.568C73.6668 11.232 73.0548 11.064 72.3508 11.064C71.8628 11.064 71.4908 11.144 71.2348 11.304C70.9788 11.464 70.8508 11.676 70.8508 11.94C70.8508 12.148 70.9228 12.312 71.0668 12.432C71.2108 12.552 71.3868 12.64 71.5948 12.696C71.8108 12.752 72.1108 12.816 72.4948 12.888C73.0068 12.976 73.4188 13.072 73.7308 13.176C74.0508 13.272 74.3228 13.44 74.5468 13.68C74.7708 13.92 74.8828 14.256 74.8828 14.688C74.8828 15.264 74.6348 15.724 74.1388 16.068C73.6508 16.404 72.9828 16.572 72.1348 16.572ZM78.1465 16.572C77.6265 16.572 77.1265 16.504 76.6465 16.368C76.1665 16.224 75.7905 16.044 75.5185 15.828L75.9985 14.916C76.2785 15.116 76.6185 15.276 77.0185 15.396C77.4185 15.516 77.8225 15.576 78.2305 15.576C79.2385 15.576 79.7425 15.288 79.7425 14.712C79.7425 14.52 79.6745 14.368 79.5385 14.256C79.4025 14.144 79.2305 14.064 79.0225 14.016C78.8225 13.96 78.5345 13.9 78.1585 13.836C77.6465 13.756 77.2265 13.664 76.8985 13.56C76.5785 13.456 76.3025 13.28 76.0705 13.032C75.8385 12.784 75.7225 12.436 75.7225 11.988C75.7225 11.412 75.9625 10.952 76.4425 10.608C76.9225 10.256 77.5665 10.08 78.3745 10.08C78.7985 10.08 79.2225 10.132 79.6465 10.236C80.0705 10.34 80.4185 10.48 80.6905 10.656L80.1985 11.568C79.6785 11.232 79.0665 11.064 78.3625 11.064C77.8745 11.064 77.5025 11.144 77.2465 11.304C76.9905 11.464 76.8625 11.676 76.8625 11.94C76.8625 12.148 76.9345 12.312 77.0785 12.432C77.2225 12.552 77.3985 12.64 77.6065 12.696C77.8225 12.752 78.1225 12.816 78.5065 12.888C79.0185 12.976 79.4305 13.072 79.7425 13.176C80.0625 13.272 80.3345 13.44 80.5585 13.68C80.7825 13.92 80.8945 14.256 80.8945 14.688C80.8945 15.264 80.6465 15.724 80.1505 16.068C79.6625 16.404 78.9945 16.572 78.1465 16.572Z" fill="#B9B9B9"/>
<defs>
<filter id="filter0_d_156_785" x="-1" y="-1" width="27" height="26" filterUnits="userSpaceOnUse" color-interpolation-filters="sRGB">
<feFlood flood-opacity="0" result="BackgroundImageFix"/>
<feColorMatrix in="SourceAlpha" type="matrix" values="0 0 0 0 0 0 0 0 0 0 0 0 0 0 0 0 0 0 127 0" result="hardAlpha"/>
<feOffset/>
<feGaussianBlur stdDeviation="2"/>
<feComposite in2="hardAlpha" operator="out"/>
<feColorMatrix type="matrix" values="0 0 0 0 0.141176 0 0 0 0 1 0 0 0 0 0 0 0 0 0.5 0"/>
<feBlend mode="normal" in2="BackgroundImageFix" result="effect1_dropShadow_156_785"/>
<feBlend mode="normal" in="SourceGraphic" in2="effect1_dropShadow_156_785" result="shape"/>
</filter>
<clipPath id="clip0_156_785">
<rect width="24" height="24" fill="white"/>
</clipPath>
</defs>
</svg>
