<svg width="24" height="24" viewBox="0 0 24 24" fill="none" xmlns="http://www.w3.org/2000/svg">
<g clip-path="url(#clip0_156_660)">
<g filter="url(#filter0_d_156_660)">
<path d="M19 3H5C3.895 3 3 3.895 3 5V19C3 20.105 3.895 21 5 21H19C20.105 21 21 20.105 21 19V5C21 3.895 20.105 3 19 3ZM9 17H6.477V10H9V17ZM7.694 8.717C6.923 8.717 6.408 8.203 6.408 7.517C6.408 6.831 6.922 6.317 7.779 6.317C8.55 6.317 9.065 6.831 9.065 7.517C9.065 8.203 8.551 8.717 7.694 8.717ZM18 17H15.558V13.174C15.558 12.116 14.907 11.872 14.663 11.872C14.419 11.872 13.605 12.035 13.605 13.174C13.605 13.337 13.605 17 13.605 17H11.082V10H13.605V10.977C13.93 10.407 14.581 10 15.802 10C17.023 10 18 10.977 18 13.174V17Z" fill="#24FF00"/>
</g>
</g>
<defs>
<filter id="filter0_d_156_660" x="-1" y="-1" width="26" height="26" filterUnits="userSpaceOnUse" color-interpolation-filters="sRGB">
<feFlood flood-opacity="0" result="BackgroundImageFix"/>
<feColorMatrix in="SourceAlpha" type="matrix" values="0 0 0 0 0 0 0 0 0 0 0 0 0 0 0 0 0 0 127 0" result="hardAlpha"/>
<feOffset/>
<feGaussianBlur stdDeviation="2"/>
<feComposite in2="hardAlpha" operator="out"/>
<feColorMatrix type="matrix" values="0 0 0 0 0.141176 0 0 0 0 1 0 0 0 0 0 0 0 0 0.5 0"/>
<feBlend mode="normal" in2="BackgroundImageFix" result="effect1_dropShadow_156_660"/>
<feBlend mode="normal" in="SourceGraphic" in2="effect1_dropShadow_156_660" result="shape"/>
</filter>
<clipPath id="clip0_156_660">
<rect width="24" height="24" fill="white"/>
</clipPath>
</defs>
</svg>
