<svg width="138" height="24" viewBox="0 0 138 24" fill="none" xmlns="http://www.w3.org/2000/svg">
<g clip-path="url(#clip0_156_772)">
<g filter="url(#filter0_d_156_772)">
<path d="M2.5 4V7H7.5V19H10.5V7H15.5V4H2.5ZM21.5 9H12.5V12H15.5V19H18.5V12H21.5V9Z" fill="#0AB30E"/>
</g>
</g>
<path d="M39.356 15.456V16.5H33.26V8.1H39.188V9.144H34.46V11.724H38.672V12.744H34.46V15.456H39.356ZM49.0871 10.08C49.8871 10.08 50.5191 10.312 50.9831 10.776C51.4551 11.24 51.6911 11.928 51.6911 12.84V16.5H50.5391V12.972C50.5391 12.356 50.3951 11.892 50.1071 11.58C49.8271 11.268 49.4231 11.112 48.8951 11.112C48.3111 11.112 47.8471 11.296 47.5031 11.664C47.1591 12.024 46.9871 12.544 46.9871 13.224V16.5H45.8351V12.972C45.8351 12.356 45.6911 11.892 45.4031 11.58C45.1231 11.268 44.7191 11.112 44.1911 11.112C43.6071 11.112 43.1431 11.296 42.7991 11.664C42.4551 12.024 42.2831 12.544 42.2831 13.224V16.5H41.1311V10.14H42.2351V11.088C42.4671 10.76 42.7711 10.512 43.1471 10.344C43.5231 10.168 43.9511 10.08 44.4311 10.08C44.9271 10.08 45.3671 10.18 45.7511 10.38C46.1351 10.58 46.4311 10.872 46.6391 11.256C46.8791 10.888 47.2111 10.6 47.6351 10.392C48.0671 10.184 48.5511 10.08 49.0871 10.08ZM57.1828 10.08C57.7988 10.08 58.3508 10.216 58.8388 10.488C59.3268 10.76 59.7068 11.14 59.9788 11.628C60.2588 12.116 60.3988 12.68 60.3988 13.32C60.3988 13.96 60.2588 14.528 59.9788 15.024C59.7068 15.512 59.3268 15.892 58.8388 16.164C58.3508 16.436 57.7988 16.572 57.1828 16.572C56.7108 16.572 56.2788 16.48 55.8867 16.296C55.4948 16.112 55.1708 15.844 54.9148 15.492V16.5H53.8108V7.596H54.9628V11.1C55.2188 10.764 55.5388 10.512 55.9228 10.344C56.3068 10.168 56.7268 10.08 57.1828 10.08ZM57.0868 15.564C57.4948 15.564 57.8588 15.472 58.1788 15.288C58.5068 15.096 58.7628 14.832 58.9468 14.496C59.1388 14.152 59.2348 13.76 59.2348 13.32C59.2348 12.88 59.1388 12.492 58.9468 12.156C58.7628 11.812 58.5068 11.548 58.1788 11.364C57.8588 11.18 57.4948 11.088 57.0868 11.088C56.6868 11.088 56.3228 11.18 55.9948 11.364C55.6668 11.548 55.4108 11.812 55.2268 12.156C55.0428 12.492 54.9508 12.88 54.9508 13.32C54.9508 13.76 55.0428 14.152 55.2268 14.496C55.4108 14.832 55.6668 15.096 55.9948 15.288C56.3228 15.472 56.6868 15.564 57.0868 15.564ZM67.7384 13.356C67.7384 13.444 67.7304 13.56 67.7144 13.704H62.5544C62.6264 14.264 62.8704 14.716 63.2864 15.06C63.7104 15.396 64.2344 15.564 64.8584 15.564C65.6184 15.564 66.2304 15.308 66.6944 14.796L67.3304 15.54C67.0424 15.876 66.6824 16.132 66.2504 16.308C65.8264 16.484 65.3504 16.572 64.8224 16.572C64.1504 16.572 63.5544 16.436 63.0344 16.164C62.5144 15.884 62.1104 15.496 61.8224 15C61.5424 14.504 61.4024 13.944 61.4024 13.32C61.4024 12.704 61.5384 12.148 61.8104 11.652C62.0904 11.156 62.4704 10.772 62.9504 10.5C63.4384 10.22 63.9864 10.08 64.5944 10.08C65.2024 10.08 65.7424 10.22 66.2144 10.5C66.6944 10.772 67.0664 11.156 67.3304 11.652C67.6024 12.148 67.7384 12.716 67.7384 13.356ZM64.5944 11.052C64.0424 11.052 63.5784 11.22 63.2024 11.556C62.8344 11.892 62.6184 12.332 62.5544 12.876H66.6344C66.5704 12.34 66.3504 11.904 65.9744 11.568C65.6064 11.224 65.1464 11.052 64.5944 11.052ZM75.3381 7.596V16.5H74.2341V15.492C73.9781 15.844 73.6541 16.112 73.2621 16.296C72.8701 16.48 72.4381 16.572 71.9661 16.572C71.3501 16.572 70.7981 16.436 70.3101 16.164C69.8221 15.892 69.4381 15.512 69.1581 15.024C68.8861 14.528 68.7501 13.96 68.7501 13.32C68.7501 12.68 68.8861 12.116 69.1581 11.628C69.4381 11.14 69.8221 10.76 70.3101 10.488C70.7981 10.216 71.3501 10.08 71.9661 10.08C72.4221 10.08 72.8421 10.168 73.2261 10.344C73.6101 10.512 73.9301 10.764 74.1861 11.1V7.596H75.3381ZM72.0621 15.564C72.4621 15.564 72.8261 15.472 73.1541 15.288C73.4821 15.096 73.7381 14.832 73.9221 14.496C74.1061 14.152 74.1981 13.76 74.1981 13.32C74.1981 12.88 74.1061 12.492 73.9221 12.156C73.7381 11.812 73.4821 11.548 73.1541 11.364C72.8261 11.18 72.4621 11.088 72.0621 11.088C71.6541 11.088 71.2861 11.18 70.9581 11.364C70.6381 11.548 70.3821 11.812 70.1901 12.156C70.0061 12.492 69.9141 12.88 69.9141 13.32C69.9141 13.76 70.0061 14.152 70.1901 14.496C70.3821 14.832 70.6381 15.096 70.9581 15.288C71.2861 15.472 71.6541 15.564 72.0621 15.564ZM82.5764 9.144H79.6964V8.1H86.6444V9.144H83.7644V16.5H82.5764V9.144ZM92.8752 13.356C92.8752 13.444 92.8672 13.56 92.8512 13.704H87.6912C87.7632 14.264 88.0072 14.716 88.4232 15.06C88.8472 15.396 89.3712 15.564 89.9952 15.564C90.7552 15.564 91.3672 15.308 91.8312 14.796L92.4672 15.54C92.1792 15.876 91.8192 16.132 91.3872 16.308C90.9632 16.484 90.4872 16.572 89.9592 16.572C89.2872 16.572 88.6912 16.436 88.1712 16.164C87.6512 15.884 87.2472 15.496 86.9592 15C86.6792 14.504 86.5392 13.944 86.5392 13.32C86.5392 12.704 86.6752 12.148 86.9472 11.652C87.2272 11.156 87.6072 10.772 88.0872 10.5C88.5752 10.22 89.1232 10.08 89.7312 10.08C90.3392 10.08 90.8792 10.22 91.3512 10.5C91.8312 10.772 92.2032 11.156 92.4672 11.652C92.7392 12.148 92.8752 12.716 92.8752 13.356ZM89.7312 11.052C89.1792 11.052 88.7152 11.22 88.3392 11.556C87.9712 11.892 87.7552 12.332 87.6912 12.876H91.7712C91.7072 12.34 91.4872 11.904 91.1112 11.568C90.7432 11.224 90.2832 11.052 89.7312 11.052ZM98.355 16.5L96.519 14.064L94.659 16.5H93.375L95.883 13.248L93.495 10.14H94.779L96.531 12.432L98.271 10.14H99.531L97.131 13.248L99.663 16.5H98.355ZM104.496 16.128C104.328 16.272 104.12 16.384 103.872 16.464C103.624 16.536 103.368 16.572 103.104 16.572C102.464 16.572 101.968 16.4 101.616 16.056C101.264 15.712 101.088 15.22 101.088 14.58V11.088H100.008V10.14H101.088V8.748H102.24V10.14H104.064V11.088H102.24V14.532C102.24 14.876 102.324 15.14 102.492 15.324C102.668 15.508 102.916 15.6 103.236 15.6C103.588 15.6 103.888 15.5 104.136 15.3L104.496 16.128ZM109.28 8.1H112.82C113.708 8.1 114.496 8.276 115.184 8.628C115.872 8.98 116.404 9.476 116.78 10.116C117.164 10.748 117.356 11.476 117.356 12.3C117.356 13.124 117.164 13.856 116.78 14.496C116.404 15.128 115.872 15.62 115.184 15.972C114.496 16.324 113.708 16.5 112.82 16.5H109.28V8.1ZM112.748 15.456C113.428 15.456 114.024 15.324 114.536 15.06C115.056 14.796 115.456 14.428 115.736 13.956C116.016 13.476 116.156 12.924 116.156 12.3C116.156 11.676 116.016 11.128 115.736 10.656C115.456 10.176 115.056 9.804 114.536 9.54C114.024 9.276 113.428 9.144 112.748 9.144H110.48V15.456H112.748ZM121.342 10.08C122.222 10.08 122.894 10.296 123.358 10.728C123.83 11.16 124.066 11.804 124.066 12.66V16.5H122.974V15.66C122.782 15.956 122.506 16.184 122.146 16.344C121.794 16.496 121.374 16.572 120.886 16.572C120.174 16.572 119.602 16.4 119.17 16.056C118.746 15.712 118.534 15.26 118.534 14.7C118.534 14.14 118.738 13.692 119.146 13.356C119.554 13.012 120.202 12.84 121.09 12.84H122.914V12.612C122.914 12.116 122.77 11.736 122.482 11.472C122.194 11.208 121.77 11.076 121.21 11.076C120.834 11.076 120.466 11.14 120.106 11.268C119.746 11.388 119.442 11.552 119.194 11.76L118.714 10.896C119.042 10.632 119.434 10.432 119.89 10.296C120.346 10.152 120.83 10.08 121.342 10.08ZM121.078 15.684C121.518 15.684 121.898 15.588 122.218 15.396C122.538 15.196 122.77 14.916 122.914 14.556V13.668H121.138C120.162 13.668 119.674 13.996 119.674 14.652C119.674 14.972 119.798 15.224 120.046 15.408C120.294 15.592 120.638 15.684 121.078 15.684ZM129.773 16.128C129.605 16.272 129.397 16.384 129.149 16.464C128.901 16.536 128.645 16.572 128.381 16.572C127.741 16.572 127.245 16.4 126.893 16.056C126.541 15.712 126.365 15.22 126.365 14.58V11.088H125.285V10.14H126.365V8.748H127.517V10.14H129.341V11.088H127.517V14.532C127.517 14.876 127.601 15.14 127.769 15.324C127.945 15.508 128.193 15.6 128.513 15.6C128.865 15.6 129.165 15.5 129.413 15.3L129.773 16.128ZM133.482 10.08C134.362 10.08 135.034 10.296 135.498 10.728C135.97 11.16 136.206 11.804 136.206 12.66V16.5H135.114V15.66C134.922 15.956 134.646 16.184 134.286 16.344C133.934 16.496 133.514 16.572 133.026 16.572C132.314 16.572 131.742 16.4 131.31 16.056C130.886 15.712 130.674 15.26 130.674 14.7C130.674 14.14 130.878 13.692 131.286 13.356C131.694 13.012 132.342 12.84 133.23 12.84H135.054V12.612C135.054 12.116 134.91 11.736 134.622 11.472C134.334 11.208 133.91 11.076 133.35 11.076C132.974 11.076 132.606 11.14 132.246 11.268C131.886 11.388 131.582 11.552 131.334 11.76L130.854 10.896C131.182 10.632 131.574 10.432 132.03 10.296C132.486 10.152 132.97 10.08 133.482 10.08ZM133.218 15.684C133.658 15.684 134.038 15.588 134.358 15.396C134.678 15.196 134.91 14.916 135.054 14.556V13.668H133.278C132.302 13.668 131.814 13.996 131.814 14.652C131.814 14.972 131.938 15.224 132.186 15.408C132.434 15.592 132.778 15.684 133.218 15.684Z" fill="white"/>
<defs>
<filter id="filter0_d_156_772" x="-1.5" y="0" width="27" height="23" filterUnits="userSpaceOnUse" color-interpolation-filters="sRGB">
<feFlood flood-opacity="0" result="BackgroundImageFix"/>
<feColorMatrix in="SourceAlpha" type="matrix" values="0 0 0 0 0 0 0 0 0 0 0 0 0 0 0 0 0 0 127 0" result="hardAlpha"/>
<feOffset/>
<feGaussianBlur stdDeviation="2"/>
<feComposite in2="hardAlpha" operator="out"/>
<feColorMatrix type="matrix" values="0 0 0 0 0.141176 0 0 0 0 1 0 0 0 0 0 0 0 0 0.5 0"/>
<feBlend mode="normal" in2="BackgroundImageFix" result="effect1_dropShadow_156_772"/>
<feBlend mode="normal" in="SourceGraphic" in2="effect1_dropShadow_156_772" result="shape"/>
</filter>
<clipPath id="clip0_156_772">
<rect width="24" height="24" fill="white"/>
</clipPath>
</defs>
</svg>
