<svg width="24" height="24" viewBox="0 0 24 24" fill="none" xmlns="http://www.w3.org/2000/svg">
<g clip-path="url(#clip0_156_662)">
<g filter="url(#filter0_d_156_662)">
<path d="M8.59156 20.6842C6.16531 20.6842 3.90363 19.9608 2 18.7125C3.61624 18.8197 6.46855 18.563 8.24268 16.8281C5.57381 16.7026 4.3702 14.6041 4.2132 13.7074C4.43997 13.7971 5.52148 13.9047 6.132 13.6536C3.06192 12.8644 2.59095 10.1024 2.69561 9.25942C3.27125 9.67193 4.24809 9.81542 4.63185 9.77954C1.77109 7.68111 2.80027 4.5245 3.30613 3.84296C5.35912 6.75879 8.4359 8.39643 12.2423 8.48752C12.1705 8.16483 12.1326 7.82888 12.1326 7.48383C12.1326 5.00748 14.0851 3 16.4935 3C17.7519 3 18.8858 3.54802 19.6818 4.42461C20.5227 4.2226 21.7882 3.74971 22.4069 3.34077C22.0951 4.48863 21.1242 5.44618 20.5369 5.80108C20.5418 5.81316 20.5321 5.78896 20.5369 5.80108C21.0528 5.72109 22.4486 5.44609 23 5.06256C22.7273 5.70741 21.698 6.7796 20.8533 7.37986C21.0105 14.4856 15.7074 20.6842 8.59156 20.6842Z" fill="#24FF00"/>
</g>
</g>
<defs>
<filter id="filter0_d_156_662" x="-2" y="-1" width="29" height="25.6842" filterUnits="userSpaceOnUse" color-interpolation-filters="sRGB">
<feFlood flood-opacity="0" result="BackgroundImageFix"/>
<feColorMatrix in="SourceAlpha" type="matrix" values="0 0 0 0 0 0 0 0 0 0 0 0 0 0 0 0 0 0 127 0" result="hardAlpha"/>
<feOffset/>
<feGaussianBlur stdDeviation="2"/>
<feComposite in2="hardAlpha" operator="out"/>
<feColorMatrix type="matrix" values="0 0 0 0 0.141176 0 0 0 0 1 0 0 0 0 0 0 0 0 0.5 0"/>
<feBlend mode="normal" in2="BackgroundImageFix" result="effect1_dropShadow_156_662"/>
<feBlend mode="normal" in="SourceGraphic" in2="effect1_dropShadow_156_662" result="shape"/>
</filter>
<clipPath id="clip0_156_662">
<rect width="24" height="24" fill="white"/>
</clipPath>
</defs>
</svg>
