<svg width="206" height="48" viewBox="0 0 206 48" fill="none" xmlns="http://www.w3.org/2000/svg">
<g filter="url(#filter0_d_156_674)">
<path d="M20.7067 13.0139C40.2404 18.9358 44.9642 29.9679 44.8844 34.7436C47.9964 31.7588 51.4675 18.6254 40.6952 11.7006C32.0774 6.16066 23.7788 10.2678 20.7067 13.0139Z" fill="#0AB30E"/>
<path d="M27.2932 34.6243C7.75948 28.7023 3.03564 17.6703 3.11543 12.8945C0.00344458 15.8794 -3.46762 29.0128 7.30465 35.9376C15.9225 41.4775 24.2211 37.3704 27.2932 34.6243Z" fill="#0AB30E"/>
<path d="M13.166 27.2253C19.1028 7.7402 30.1623 3.02811 34.95 3.1077C31.9577 0.00345321 18.7916 -3.45898 11.8494 7.2865C6.29572 15.8829 10.4131 24.1609 13.166 27.2253Z" fill="#0AB30E"/>
<path d="M34.95 20.7747C29.0133 40.2598 17.9537 44.9719 13.1661 44.8923C16.1583 47.9965 29.3245 51.459 36.2666 40.7135C41.8203 32.1171 37.7029 23.8391 34.95 20.7747Z" fill="#0AB30E"/>
<ellipse cx="23.9384" cy="23.8788" rx="5.26645" ry="5.25335" fill="#0AB30E"/>
</g>
<path d="M64.032 27.8881L70.16 20.4801V18.8001H60.736V20.9121H66.752L60.608 28.3201V30.0001H70.4V27.8881H64.032ZM74.6384 27.9201V25.3281H79.8384V23.3121H74.6384V20.8801H80.5264V18.8001H72.0624V30.0001H80.7344V27.9201H74.6384ZM90.5087 18.8001V25.6001L84.9408 18.8001H82.7968V30.0001H85.3568V23.2001L90.9408 30.0001H93.0688V18.8001H90.5087ZM101.143 30.1921C104.663 30.1921 107.271 27.7441 107.271 24.4001C107.271 21.0561 104.663 18.6081 101.143 18.6081C97.6066 18.6081 95.0146 21.0721 95.0146 24.4001C95.0146 27.7281 97.6066 30.1921 101.143 30.1921ZM101.143 27.9841C99.1426 27.9841 97.6386 26.5281 97.6386 24.4001C97.6386 22.2721 99.1426 20.8161 101.143 20.8161C103.143 20.8161 104.647 22.2721 104.647 24.4001C104.647 26.5281 103.143 27.9841 101.143 27.9841ZM116.931 18.8001V25.6001L111.363 18.8001H109.219V30.0001H111.779V23.2001L117.363 30.0001H119.491V18.8001H116.931ZM130.352 30.1921C133.552 30.1921 135.104 28.5921 135.104 26.7201C135.104 22.6081 128.592 24.0321 128.592 21.9681C128.592 21.2641 129.184 20.6881 130.72 20.6881C131.712 20.6881 132.784 20.9761 133.824 21.5681L134.624 19.6001C133.584 18.9441 132.144 18.6081 130.736 18.6081C127.552 18.6081 126.016 20.1921 126.016 22.0961C126.016 26.2561 132.528 24.8161 132.528 26.9121C132.528 27.6001 131.904 28.1121 130.368 28.1121C129.024 28.1121 127.616 27.6321 126.672 26.9441L125.792 28.8961C126.784 29.6641 128.576 30.1921 130.352 30.1921ZM142.235 30.1921C144.187 30.1921 145.803 29.4881 146.859 28.1921L145.195 26.6561C144.443 27.5361 143.499 27.9841 142.379 27.9841C140.283 27.9841 138.795 26.5121 138.795 24.4001C138.795 22.2881 140.283 20.8161 142.379 20.8161C143.499 20.8161 144.443 21.2641 145.195 22.1281L146.859 20.5921C145.803 19.3121 144.187 18.6081 142.251 18.6081C138.763 18.6081 136.171 21.0241 136.171 24.4001C136.171 27.7761 138.763 30.1921 142.235 30.1921ZM158.529 30.0001L156.017 26.4001C157.473 25.7761 158.321 24.5441 158.321 22.8641C158.321 20.3521 156.449 18.8001 153.457 18.8001H148.609V30.0001H151.201V26.8801H153.457H153.585L155.745 30.0001H158.529ZM155.697 22.8641C155.697 24.0801 154.897 24.8161 153.313 24.8161H151.201V20.9121H153.313C154.897 20.9121 155.697 21.6321 155.697 22.8641ZM168.743 30.0001H171.463L166.455 18.8001H163.895L158.903 30.0001H161.559L162.551 27.6001H167.751L168.743 30.0001ZM163.383 25.6321L165.159 21.3441L166.935 25.6321H163.383ZM177.473 18.8001H172.625V30.0001H175.217V26.9121H177.473C180.465 26.9121 182.337 25.3601 182.337 22.8641C182.337 20.3521 180.465 18.8001 177.473 18.8001ZM177.329 24.8001H175.217V20.9121H177.329C178.913 20.9121 179.713 21.6321 179.713 22.8641C179.713 24.0801 178.913 24.8001 177.329 24.8001ZM186.763 27.9201V25.3281H191.963V23.3121H186.763V20.8801H192.651V18.8001H184.187V30.0001H192.859V27.9201H186.763ZM204.842 30.0001L202.33 26.4001C203.786 25.7761 204.634 24.5441 204.634 22.8641C204.634 20.3521 202.762 18.8001 199.77 18.8001H194.922V30.0001H197.514V26.8801H199.77H199.898L202.058 30.0001H204.842ZM202.01 22.8641C202.01 24.0801 201.21 24.8161 199.626 24.8161H197.514V20.9121H199.626C201.21 20.9121 202.01 21.6321 202.01 22.8641Z" fill="white"/>
<defs>
<filter id="filter0_d_156_674" x="-4.00006" y="-4.00005" width="56" height="56.0001" filterUnits="userSpaceOnUse" color-interpolation-filters="sRGB">
<feFlood flood-opacity="0" result="BackgroundImageFix"/>
<feColorMatrix in="SourceAlpha" type="matrix" values="0 0 0 0 0 0 0 0 0 0 0 0 0 0 0 0 0 0 127 0" result="hardAlpha"/>
<feOffset/>
<feGaussianBlur stdDeviation="2"/>
<feComposite in2="hardAlpha" operator="out"/>
<feColorMatrix type="matrix" values="0 0 0 0 0.141176 0 0 0 0 1 0 0 0 0 0 0 0 0 0.5 0"/>
<feBlend mode="normal" in2="BackgroundImageFix" result="effect1_dropShadow_156_674"/>
<feBlend mode="normal" in="SourceGraphic" in2="effect1_dropShadow_156_674" result="shape"/>
</filter>
</defs>
</svg>
