<svg width="48" height="48" viewBox="0 0 48 48" fill="none" xmlns="http://www.w3.org/2000/svg">
<path d="M20.7067 13.0139C40.2404 18.9358 44.9642 29.9679 44.8844 34.7436C47.9964 31.7588 51.4675 18.6254 40.6952 11.7006C32.0774 6.16066 23.7788 10.2678 20.7067 13.0139Z" fill="url(#paint0_linear_644_2)"/>
<path d="M27.2932 34.6243C7.75951 28.7023 3.03567 17.6703 3.11546 12.8945C0.0034751 15.8794 -3.46759 29.0128 7.30469 35.9376C15.9225 41.4775 24.2211 37.3704 27.2932 34.6243Z" fill="url(#paint1_linear_644_2)"/>
<path d="M13.166 27.2253C19.1027 7.7402 30.1623 3.02811 34.9499 3.1077C31.9577 0.00345321 18.7915 -3.45898 11.8494 7.2865C6.29569 15.8829 10.4131 24.1609 13.166 27.2253Z" fill="url(#paint2_linear_644_2)"/>
<path d="M34.95 20.7747C29.0133 40.2598 17.9537 44.9719 13.1661 44.8923C16.1583 47.9965 29.3245 51.459 36.2666 40.7135C41.8203 32.1171 37.7029 23.8391 34.95 20.7747Z" fill="url(#paint3_linear_644_2)"/>
<ellipse cx="23.9384" cy="23.8788" rx="5.26645" ry="5.25335" fill="url(#paint4_linear_644_2)"/>
<defs>
<linearGradient id="paint0_linear_644_2" x1="20.7067" y1="8.95459" x2="47.2219" y2="35.401" gradientUnits="userSpaceOnUse">
<stop offset="0.229167" stop-color="#0AB30E"/>
<stop offset="1" stop-color="#286611" stop-opacity="0.05"/>
</linearGradient>
<linearGradient id="paint1_linear_644_2" x1="27.2932" y1="38.6836" x2="0.777967" y2="12.2372" gradientUnits="userSpaceOnUse">
<stop offset="0.229167" stop-color="#0AB30E"/>
<stop offset="1" stop-color="#286611" stop-opacity="0.05"/>
</linearGradient>
<linearGradient id="paint2_linear_644_2" x1="9.09659" y1="27.2253" x2="35.4765" y2="0.644624" gradientUnits="userSpaceOnUse">
<stop offset="0.229167" stop-color="#0AB30E"/>
<stop offset="1" stop-color="#286611" stop-opacity="0.05"/>
</linearGradient>
<linearGradient id="paint3_linear_644_2" x1="39.0194" y1="20.7747" x2="12.6395" y2="47.3554" gradientUnits="userSpaceOnUse">
<stop offset="0.229167" stop-color="#0AB30E"/>
<stop offset="1" stop-color="#286611" stop-opacity="0.05"/>
</linearGradient>
<linearGradient id="paint4_linear_644_2" x1="18.6719" y1="18.6255" x2="29.4571" y2="28.8151" gradientUnits="userSpaceOnUse">
<stop offset="0.229167" stop-color="#0AB30E"/>
<stop offset="1" stop-color="#286611" stop-opacity="0.05"/>
</linearGradient>
</defs>
</svg>
